<?xml version="1.0" encoding="UTF-8"?>
<svg width="1200pt" height="1200pt" version="1.1" viewBox="0 0 1200 1200" xmlns="http://www.w3.org/2000/svg">
 <path d="m516.16 267.49c-1.8828 0.12891-3.7266 0.60938-5.4297 1.418l-83.129 37.785c-3.1484 1.3828-5.7266 3.8008-7.3164 6.8477-1.5859 3.0469-2.0898 6.5469-1.4219 9.918l16.766 79.824c-11.789 9.8555-22.73 20.793-32.59 32.59l-79.586-16.77c-3.3711-0.66406-6.8711-0.16406-9.918 1.4258-3.0469 1.5859-5.4648 4.168-6.8477 7.3125l-37.785 83.129c-1.418 3.1719-1.6992 6.7383-0.79688 10.09 0.90625 3.3555 2.9375 6.2969 5.7539 8.332l70.375 49.594c-0.57422 6.9805-1.1797 13.859-1.1797 21.016 0 7.1953 0.60156 14.18 1.1797 21.258l-70.375 49.594c-2.8164 2.0312-4.8477 4.9727-5.7539 8.3281-0.90234 3.3555-0.62109 6.918 0.79688 10.09l37.785 83.129c1.3828 3.1445 3.8008 5.7266 6.8477 7.3164 3.0469 1.5859 6.5469 2.0898 9.918 1.4219l79.586-16.766c9.8594 11.797 20.797 22.73 32.59 32.59l-16.766 79.82c-0.66797 3.3711-0.16406 6.8711 1.4219 9.918 1.5898 3.0508 4.168 5.4648 7.3164 6.8516l83.129 37.785c3.1719 1.4141 6.7344 1.6953 10.09 0.79297s6.2969-2.9336 8.3281-5.7539l49.832-70.609c6.9961 0.56641 13.902 1.1797 21.016 1.1797 7.1172 0 14.02-0.61328 21.02-1.1797l49.832 70.609c2.0312 2.8203 4.9727 4.8516 8.3281 5.7539 3.3555 0.90234 6.918 0.62109 10.09-0.79297l83.129-37.785c3.1445-1.3867 5.7266-3.8008 7.3164-6.8516 1.5859-3.0469 2.0898-6.5469 1.4219-9.918l-17.711-83.363c-0.55469-4.1641-2.8164-7.9062-6.2422-10.336-3.4258-2.4297-7.707-3.3242-11.82-2.4688s-7.6836 3.3828-9.8555 6.9766c-2.1719 3.5938-2.7539 7.9297-1.6016 11.969l15.113 71.793-60.695 27.395-47.465-67.309c-1.5469-2.207-3.6523-3.9609-6.1016-5.082-2.4492-1.1211-5.1523-1.5664-7.832-1.293-8.7617 1.0312-17.844 1.6523-26.926 1.6523s-18.16-0.61719-26.922-1.6523c-2.6797-0.27344-5.3828 0.17188-7.832 1.293-2.4492 1.1211-4.5586 2.875-6.1016 5.082l-47.469 67.309-60.691-27.395 16.297-76.754c0.57812-2.7969 0.35547-5.7031-0.64844-8.375-1.0039-2.6758-2.7461-5.0117-5.0195-6.7383-15.445-11.922-29.184-25.652-41.094-41.094-1.7266-2.2734-4.0625-4.0156-6.7383-5.0195s-5.5781-1.2266-8.375-0.64844l-76.516 16.297-27.395-60.695 67.066-47.465c2.2109-1.5469 3.9648-3.6523 5.0859-6.1016 1.1211-2.4492 1.5664-5.1523 1.293-7.832-1.0312-8.7578-1.6523-17.848-1.6523-26.926 0-9.043 0.625-17.922 1.6523-26.684 0.27344-2.6797-0.17188-5.3867-1.293-7.8359-1.1211-2.4492-2.875-4.5547-5.0859-6.0977l-67.066-47.469 27.395-60.695 76.516 16.297c2.7969 0.57812 5.6992 0.35547 8.375-0.64844 2.6758-1.0039 5.0117-2.7422 6.7383-5.0195 11.898-15.422 25.664-29.18 41.094-41.094 2.2734-1.7227 4.0156-4.0586 5.0195-6.7344 1.0039-2.6758 1.2266-5.582 0.64844-8.3789l-16.297-76.75 60.691-27.395 47.469 67.305c1.543 2.207 3.6523 3.9648 6.1016 5.0859 2.4492 1.1211 5.1523 1.5664 7.832 1.2891 9.0078-1.0586 18.09-1.8867 26.922-1.8867 8.8359 0 17.914 0.82813 26.926 1.8867 2.6797 0.27734 5.3828-0.16797 7.832-1.2891 2.4492-1.1211 4.5547-2.8789 6.1016-5.0859l47.465-67.305 60.695 27.395-16.297 76.75c-0.57812 2.7969-0.35547 5.7031 0.64844 8.3789s2.7461 5.0117 5.0195 6.7344c15.43 11.914 29.195 25.672 41.094 41.094 1.7266 2.2773 4.0625 4.0156 6.7383 5.0195 2.6719 1.0039 5.5781 1.2266 8.375 0.64844l76.516-16.297 27.395 60.695-67.07 47.469c-2.207 1.543-3.9609 3.6484-5.082 6.0977-1.1211 2.4492-1.5664 5.1562-1.293 7.8359 1.0273 8.7617 1.6523 17.641 1.6523 26.684 0 9.0781-0.62109 18.168-1.6523 26.926-0.27344 2.6797 0.17188 5.3828 1.293 7.832 1.1211 2.4492 2.875 4.5547 5.082 6.1016l67.07 47.465-27.395 60.695-71.555-15.113c-4.0391-1.1523-8.375-0.57031-11.969 1.6016-3.5938 2.1719-6.1211 5.7422-6.9766 9.8555s0.039063 8.3945 2.4688 11.82c2.4297 3.4258 6.1719 5.6875 10.336 6.2422l83.129 17.711c3.3711 0.66797 6.8711 0.16406 9.918-1.4219 3.0469-1.5898 5.4648-4.1719 6.8477-7.3164l37.785-83.129c1.418-3.1719 1.6992-6.7344 0.79297-10.09-0.90234-3.3555-2.9336-6.2969-5.75-8.3281l-70.375-49.594c0.57812-7.0781 1.1797-14.062 1.1797-21.258 0-7.1562-0.60547-14.035-1.1797-21.016l70.375-49.594c2.8164-2.0352 4.8477-4.9766 5.75-8.332 0.90625-3.3516 0.625-6.918-0.79297-10.09l-37.785-83.129c-1.3828-3.1445-3.8008-5.7266-6.8477-7.3125-3.0469-1.5898-6.5469-2.0898-9.918-1.4258l-79.586 16.77c-9.8594-11.797-20.801-22.734-32.59-32.59l16.766-79.824c0.66797-3.3711 0.16406-6.8711-1.4219-9.918-1.5898-3.0469-4.1719-5.4648-7.3164-6.8477l-83.129-37.785c-3.1719-1.418-6.7344-1.6992-10.09-0.79688-3.3555 0.90625-6.2969 2.9375-8.3281 5.7539l-49.594 70.613c-7.0078-0.64844-13.887-1.418-21.258-1.418s-14.246 0.76953-21.254 1.418l-49.594-70.613c-2.9648-4.1953-7.8555-6.5938-12.988-6.375zm83.836 189.16c-79.121 0-143.59 64.227-143.59 143.35 0 79.125 64.465 143.59 143.59 143.59s143.59-64.461 143.59-143.59c0-79.121-64.465-143.35-143.59-143.35zm0 29.992c62.785 0 113.36 50.574 113.36 113.36 0 62.785-50.574 113.59-113.36 113.59-62.781 0-113.36-50.809-113.36-113.59 0-62.781 50.574-113.36 113.36-113.36z"/>
</svg>
